<svg id="svg" xmlns="http://www.w3.org/2000/svg" xmlns:xlink="http://www.w3.org/1999/xlink" width="400" height="96.39999999999999" viewBox="0, 0, 400,96.39999999999999"><g id="svgg"><path id="path0" d="M202.600 34.655 C 194.841 35.800,189.358 37.773,183.256 41.618 C 175.235 46.671,170.407 53.024,171.718 56.800 C 173.531 62.018,182.498 62.214,184.250 57.073 C 184.897 55.175,184.554 54.803,183.049 55.769 C 180.542 57.377,178.745 57.659,177.330 56.664 C 172.027 52.938,188.609 40.427,200.841 38.926 C 202.118 38.769,202.139 38.935,201.029 40.420 C 198.417 43.915,196.881 46.029,194.359 49.600 C 192.845 51.745,191.534 53.590,191.448 53.700 C 191.283 53.908,187.801 58.945,185.883 61.750 C 185.540 62.251,184.545 62.853,181.538 64.380 C 170.675 69.898,165.865 75.229,167.776 79.633 C 168.476 81.249,168.945 81.503,171.168 81.477 C 175.799 81.423,179.715 77.996,186.435 68.115 C 187.253 66.913,188.052 65.858,188.211 65.769 C 188.370 65.681,189.487 65.143,190.693 64.575 C 193.636 63.188,196.200 60.698,196.200 59.226 C 196.200 58.423,195.966 58.459,192.553 59.777 L 192.006 59.988 192.737 58.944 C 193.924 57.249,194.093 57.008,195.835 54.556 C 196.751 53.266,198.395 50.926,199.489 49.356 C 200.583 47.785,202.650 44.970,204.083 43.100 C 208.495 37.339,208.752 36.861,208.108 35.615 C 207.533 34.504,205.740 34.191,202.600 34.655 M224.100 49.372 C 222.622 49.688,222.058 50.279,220.161 53.500 C 217.834 57.452,214.601 62.929,213.768 64.328 C 212.479 66.496,212.469 67.073,213.717 67.607 C 215.344 68.305,215.832 68.090,217.370 66.000 C 220.560 61.664,228.832 53.165,229.353 53.687 C 229.403 53.736,228.862 54.659,228.151 55.738 C 223.248 63.184,222.775 66.582,226.389 68.401 C 229.254 69.842,236.200 65.511,236.200 62.283 C 236.200 60.630,235.539 60.193,234.500 61.160 C 230.819 64.584,229.958 65.200,228.848 65.200 C 227.055 65.200,227.548 63.315,230.601 58.500 C 231.299 57.400,232.025 56.320,232.216 56.100 C 233.129 55.044,234.388 52.546,234.530 51.504 C 234.865 49.064,230.223 48.616,227.958 50.869 C 227.816 51.011,227.550 51.210,227.367 51.313 C 227.184 51.416,226.644 51.865,226.167 52.310 C 224.814 53.574,224.714 53.543,225.494 52.097 C 226.763 49.746,226.328 48.896,224.100 49.372 M208.028 50.111 C 199.552 54.056,194.351 65.911,200.051 68.292 C 204.456 70.133,213.361 62.603,216.110 54.714 C 216.891 52.474,215.848 50.413,213.929 50.403 C 213.615 50.401,213.090 50.175,212.764 49.900 C 211.838 49.121,209.977 49.204,208.028 50.111 M210.894 53.180 C 210.960 53.389,211.236 53.616,211.507 53.684 C 212.828 54.015,210.353 58.428,206.900 61.898 C 202.177 66.644,199.610 65.314,202.833 59.790 C 205.085 55.932,210.387 51.584,210.894 53.180 M179.684 70.728 C 175.932 75.532,171.000 79.088,171.000 76.987 C 171.000 75.933,173.915 73.371,178.682 70.234 C 181.340 68.485,181.408 68.519,179.684 70.728 " stroke="none" fill="#000000" fill-rule="evenodd"></path></g></svg>